# xmcd
#
# Track frame offsets:
#	150
#	43771
#	98336
#	133903
#	169712
#	219224
#	234092
#	280295
#
# Disc length: 4842 seconds
#
# Revision: 1
# Processed by: cddbd v1.5.2PL0 Copyright (c) Steve Scherf et al.
# Submitted via: audiograbber 1.83.01
#
DISCID=6312e808
DTITLE=Grateful Dead - 95-05-26 Seattle Centre Memorial Coliseum, Seattle WA
DYEAR=1900
DGENRE=
TTITLE0=Help On The Way > Slipknot!
TTITLE1=Franklin's Tower
TTITLE2=Same Thing
TTITLE3=Loose Lucy
TTITLE4=Eternity
TTITLE5=Don't Ease Me In
TTITLE6=Scarlet Begonias
TTITLE7=Fire On The Mountain
EXTD=
EXTT0=
EXTT1=
EXTT2=
EXTT3=
EXTT4=
EXTT5=
EXTT6=
EXTT7=
PLAYORDER=
